<svg fill="#FFFFFF" xmlns="http://www.w3.org/2000/svg"  viewBox="0 0 64 64" width="128px" height="128px"><path d="M 40.001953 8.9863281 A 1.0001 1.0001 0 0 0 39.039062 10.275391 C 39.039062 10.275391 40.904852 16.966695 41.916016 25.564453 C 39.137923 21.039661 36.707031 18.292969 36.707031 18.292969 A 1.0001 1.0001 0 0 0 35.003906 18.904297 C 35.003906 18.904297 34.495243 24.037983 33.548828 29.818359 C 30.143355 23.252988 26.818359 18.425781 26.818359 18.425781 A 1.0001 1.0001 0 0 0 25.007812 18.875 C 25.007812 18.875 24.41213 23.300483 23.181641 29.007812 C 22.181632 27.521648 20.789063 25.386719 20.789062 25.386719 A 1.0001 1.0001 0 0 0 20 25 L 9 25 A 1.0001 1.0001 0 0 0 8.21875 26.625 C 12.056228 31.421847 16.082404 40.411275 18.050781 46.316406 A 1.0001 1.0001 0 0 0 19.910156 46.414062 C 21.647643 42.591592 22.905124 38.332965 23.962891 34.21875 C 25.816001 37.587032 27.781488 41.666887 29.035156 46.263672 A 1.0001 1.0001 0 0 0 30.832031 46.554688 C 32.386275 44.223321 33.439585 40.238481 34.330078 36.054688 C 36.898003 41.886949 39 48.382957 39 54 A 1.0001 1.0001 0 0 0 40.894531 54.447266 C 43.732117 48.772094 44.532207 41.80285 44.484375 35.054688 C 46.541042 40.173063 48.339926 46.450164 49.003906 54.085938 A 1.0001 1.0001 0 0 0 50.943359 54.332031 C 57.071708 36.968375 53.002405 16.869745 50.960938 9.7246094 A 1.0001 1.0001 0 0 0 50 9 L 46 9 A 1.0001 1.0001 0 1 0 46 11 L 49.203125 11 C 51.0201 17.642028 54.057286 34.013441 50.306641 49.166016 C 49.059477 41.169308 46.740294 34.685581 44.28125 29.763672 C 44.18747 28.464625 44.131412 27.124112 43.994141 25.888672 C 42.984265 16.799788 40.960936 9.7246094 40.960938 9.7246094 A 1.0001 1.0001 0 0 0 40.001953 8.9863281 z M 36.695312 21.347656 C 38.00578 22.915799 40.002358 25.69004 42.300781 30.201172 C 42.732414 36.678759 42.392711 43.562988 40.539062 49.486328 C 39.681325 43.780496 37.471106 37.933006 35.001953 32.777344 C 35.14729 31.97606 35.355131 31.201245 35.486328 30.414062 C 36.292698 25.575845 36.5351 22.887274 36.695312 21.347656 z M 26.552734 21.679688 C 27.814 23.609032 29.74067 26.675311 32.109375 31.328125 C 32.378099 31.855976 32.629842 32.45522 32.896484 33.003906 C 32.130455 36.956478 31.215556 40.83839 30.128906 43.4375 C 28.575128 38.726352 26.550622 34.446691 24.689453 31.287109 C 25.866588 26.172918 26.307229 23.431406 26.552734 21.679688 z M 10.882812 27 L 19.464844 27 C 19.644625 27.235182 20.944163 29.079447 22.527344 31.652344 C 21.618879 35.485924 20.441841 39.440561 18.943359 43.220703 C 16.990929 37.921052 14.143614 31.623976 10.882812 27 z"/></svg>